# MagicaVoxel @ Ephtracy

# group
o 

# material
mtllib Ground_sandANDgrassLEFT.mtl
usemtl palette

# normals
vn -1 0 0
vn 1 0 0
vn 0 0 1
vn 0 0 -1
vn 0 -1 0
vn 0 1 0

# texcoords
vt 0.310547 0.5
vt 0.380859 0.5
vt 0.388672 0.5
vt 0.392578 0.5
vt 0.396484 0.5
vt 0.412109 0.5
vt 0.416016 0.5

# verts
v -0.3 0 0.3
v -0.3 0 -0.3
v -0.3 0.1 0.3
v -0.3 0.1 -0.1
v -0.3 0.1 -0.2
v -0.3 0.1 -0.3
v -0.3 0.2 0.3
v -0.3 0.2 -0.1
v -0.3 0.2 -0.2
v -0.3 0.2 -0.3
v 0.3 0 0.3
v 0.3 0 -0.3
v 0.3 0.1 0.3
v 0.3 0.1 0.2
v 0.3 0.1 0.1
v 0.3 0.1 -0.2
v 0.3 0.1 -0.3
v 0.3 0.2 0.3
v 0.3 0.2 0.2
v 0.3 0.2 0.1
v 0.3 0.2 -0.2
v 0.3 0.2 -0.3
v -0.3 0 0.3
v -0.3 0.1 0.3
v -0.3 0.2 0.3
v 0.3 0 0.3
v 0.3 0.1 0.3
v 0.3 0.2 0.3
v -0.3 0 -0.3
v -0.3 0.1 -0.3
v -0.3 0.2 -0.3
v -0.2 0.1 -0.3
v -0.2 0.2 -0.3
v -0.1 0.1 -0.3
v -0.1 0.2 -0.3
v 0.2 0.1 -0.3
v 0.2 0.2 -0.3
v 0.3 0 -0.3
v 0.3 0.1 -0.3
v 0.3 0.2 -0.3
v -0.3 0 0.3
v 0.3 0 0.3
v -0.3 0 -0.3
v 0.3 0 -0.3
v -0.3 0.2 0.3
v 0.3 0.2 0.3
v -0.1 0.2 0.2
v 0 0.2 0.2
v 0.2 0.2 0.2
v 0.3 0.2 0.2
v -0.1 0.2 0.1
v 0 0.2 0.1
v 0.1 0.2 0.1
v 0.2 0.2 0.1
v 0.3 0.2 0.1
v -0.2 0.2 0
v -0.1 0.2 0
v 0 0.2 0
v 0.1 0.2 0
v -0.3 0.2 -0.1
v -0.2 0.2 -0.1
v -0.1 0.2 -0.1
v 0 0.2 -0.1
v 0.1 0.2 -0.1
v 0.2 0.2 -0.1
v -0.3 0.2 -0.2
v -0.2 0.2 -0.2
v -0.1 0.2 -0.2
v 0 0.2 -0.2
v 0.1 0.2 -0.2
v 0.2 0.2 -0.2
v 0.3 0.2 -0.2
v -0.3 0.2 -0.3
v -0.2 0.2 -0.3
v -0.1 0.2 -0.3
v 0.2 0.2 -0.3
v 0.3 0.2 -0.3

# faces
f 3/1/1 2/1/1 1/1/1
f 4/1/1 2/1/1 3/1/1
f 5/1/1 2/1/1 4/1/1
f 6/1/1 2/1/1 5/1/1
f 7/7/1 4/7/1 3/7/1
f 8/6/1 5/6/1 4/6/1
f 8/7/1 4/7/1 7/7/1
f 9/3/1 6/3/1 5/3/1
f 9/6/1 5/6/1 8/6/1
f 10/3/1 6/3/1 9/3/1
f 11/1/2 12/1/2 13/1/2
f 13/1/2 12/1/2 14/1/2
f 14/1/2 12/1/2 15/1/2
f 15/1/2 12/1/2 16/1/2
f 16/1/2 12/1/2 17/1/2
f 13/7/2 14/7/2 18/7/2
f 14/6/2 15/6/2 19/6/2
f 18/7/2 14/7/2 19/7/2
f 15/7/2 16/7/2 20/7/2
f 19/6/2 15/6/2 20/6/2
f 16/5/2 17/5/2 21/5/2
f 20/7/2 16/7/2 21/7/2
f 21/5/2 17/5/2 22/5/2
f 26/1/3 24/1/3 23/1/3
f 27/7/3 25/7/3 24/7/3
f 27/1/3 24/1/3 26/1/3
f 28/7/3 25/7/3 27/7/3
f 29/1/4 30/1/4 32/1/4
f 30/3/4 31/3/4 32/3/4
f 32/3/4 31/3/4 33/3/4
f 29/1/4 32/1/4 34/1/4
f 32/5/4 33/5/4 34/5/4
f 34/5/4 33/5/4 35/5/4
f 29/1/4 34/1/4 36/1/4
f 34/4/4 35/4/4 36/4/4
f 36/4/4 35/4/4 37/4/4
f 29/1/4 36/1/4 38/1/4
f 36/5/4 37/5/4 39/5/4
f 38/1/4 36/1/4 39/1/4
f 39/5/4 37/5/4 40/5/4
f 43/1/5 42/1/5 41/1/5
f 44/1/5 42/1/5 43/1/5
f 45/7/6 46/7/6 47/7/6
f 47/7/6 46/7/6 48/7/6
f 48/7/6 46/7/6 49/7/6
f 49/7/6 46/7/6 50/7/6
f 45/7/6 47/7/6 51/7/6
f 47/6/6 48/6/6 51/6/6
f 48/7/6 49/7/6 52/7/6
f 51/6/6 48/6/6 52/6/6
f 52/7/6 49/7/6 53/7/6
f 49/6/6 50/6/6 54/6/6
f 53/7/6 49/7/6 54/7/6
f 54/6/6 50/6/6 55/6/6
f 45/7/6 51/7/6 56/7/6
f 51/7/6 52/7/6 56/7/6
f 56/7/6 52/7/6 57/7/6
f 52/2/6 53/2/6 58/2/6
f 57/7/6 52/7/6 58/7/6
f 54/7/6 55/7/6 59/7/6
f 58/2/6 53/2/6 59/2/6
f 53/7/6 54/7/6 59/7/6
f 45/7/6 56/7/6 60/7/6
f 56/2/6 57/2/6 61/2/6
f 60/7/6 56/7/6 61/7/6
f 57/7/6 58/7/6 62/7/6
f 61/2/6 57/2/6 62/2/6
f 58/7/6 59/7/6 62/7/6
f 62/7/6 59/7/6 63/7/6
f 59/7/6 55/7/6 64/7/6
f 63/7/6 59/7/6 64/7/6
f 64/7/6 55/7/6 65/7/6
f 60/6/6 61/6/6 66/6/6
f 62/7/6 63/7/6 67/7/6
f 66/6/6 61/6/6 67/6/6
f 61/7/6 62/7/6 67/7/6
f 67/7/6 63/7/6 68/7/6
f 63/2/6 64/2/6 69/2/6
f 68/7/6 63/7/6 69/7/6
f 64/6/6 65/6/6 70/6/6
f 69/2/6 64/2/6 70/2/6
f 65/7/6 55/7/6 71/7/6
f 70/6/6 65/6/6 71/6/6
f 71/7/6 55/7/6 72/7/6
f 66/3/6 67/3/6 73/3/6
f 67/5/6 68/5/6 74/5/6
f 73/3/6 67/3/6 74/3/6
f 69/4/6 70/4/6 75/4/6
f 74/5/6 68/5/6 75/5/6
f 68/4/6 69/4/6 75/4/6
f 70/4/6 71/4/6 75/4/6
f 71/5/6 72/5/6 76/5/6
f 75/4/6 71/4/6 76/4/6
f 76/5/6 72/5/6 77/5/6
