# MagicaVoxel @ Ephtracy

# group
o 

# material
mtllib Ground_sandANDgrassTURN2.mtl
usemtl palette

# normals
vn -1 0 0
vn 1 0 0
vn 0 0 1
vn 0 0 -1
vn 0 -1 0
vn 0 1 0

# texcoords
vt 0.310547 0.5
vt 0.380859 0.5
vt 0.388672 0.5
vt 0.392578 0.5
vt 0.396484 0.5
vt 0.412109 0.5
vt 0.416016 0.5

# verts
v -0.3 0 0.3
v -0.3 0 -0.3
v -0.3 0.1 0.3
v -0.3 0.1 0.2
v -0.3 0.1 -0.1
v -0.3 0.1 -0.2
v -0.3 0.1 -0.3
v -0.3 0.2 0.3
v -0.3 0.2 0.2
v -0.3 0.2 -0.1
v -0.3 0.2 -0.2
v -0.3 0.2 -0.3
v 0.3 0 0.3
v 0.3 0 -0.3
v 0.3 0.1 0.3
v 0.3 0.1 0.2
v 0.3 0.1 0.1
v 0.3 0.1 0
v 0.3 0.1 -0.1
v 0.3 0.1 -0.2
v 0.3 0.1 -0.3
v 0.3 0.2 0.3
v 0.3 0.2 0.2
v 0.3 0.2 0.1
v 0.3 0.2 0
v 0.3 0.2 -0.1
v 0.3 0.2 -0.2
v 0.3 0.2 -0.3
v -0.3 0 0.3
v -0.3 0.1 0.3
v -0.3 0.2 0.3
v -0.2 0.1 0.3
v -0.2 0.2 0.3
v -0.1 0.1 0.3
v -0.1 0.2 0.3
v 0 0.1 0.3
v 0 0.2 0.3
v 0.2 0.1 0.3
v 0.2 0.2 0.3
v 0.3 0 0.3
v 0.3 0.1 0.3
v 0.3 0.2 0.3
v -0.3 0 -0.3
v -0.3 0.1 -0.3
v -0.3 0.2 -0.3
v 0.2 0.1 -0.3
v 0.2 0.2 -0.3
v 0.3 0 -0.3
v 0.3 0.1 -0.3
v 0.3 0.2 -0.3
v -0.3 0 0.3
v 0.3 0 0.3
v -0.3 0 -0.3
v 0.3 0 -0.3
v -0.3 0.2 0.3
v -0.2 0.2 0.3
v -0.1 0.2 0.3
v 0 0.2 0.3
v 0.2 0.2 0.3
v 0.3 0.2 0.3
v -0.3 0.2 0.2
v -0.2 0.2 0.2
v -0.1 0.2 0.2
v 0 0.2 0.2
v 0.2 0.2 0.2
v 0.3 0.2 0.2
v -0.1 0.2 0.1
v 0 0.2 0.1
v 0.1 0.2 0.1
v 0.2 0.2 0.1
v 0.3 0.2 0.1
v -0.2 0.2 0
v -0.1 0.2 0
v 0 0.2 0
v 0.1 0.2 0
v 0.2 0.2 0
v 0.3 0.2 0
v -0.3 0.2 -0.1
v -0.2 0.2 -0.1
v -0.1 0.2 -0.1
v 0 0.2 -0.1
v 0.1 0.2 -0.1
v 0.2 0.2 -0.1
v 0.3 0.2 -0.1
v -0.3 0.2 -0.2
v -0.2 0.2 -0.2
v 0 0.2 -0.2
v 0.1 0.2 -0.2
v 0.2 0.2 -0.2
v 0.3 0.2 -0.2
v -0.3 0.2 -0.3
v 0.2 0.2 -0.3
v 0.3 0.2 -0.3

# faces
f 3/1/1 2/1/1 1/1/1
f 4/1/1 2/1/1 3/1/1
f 5/1/1 2/1/1 4/1/1
f 6/1/1 2/1/1 5/1/1
f 7/1/1 2/1/1 6/1/1
f 8/3/1 4/3/1 3/3/1
f 9/7/1 5/7/1 4/7/1
f 9/3/1 4/3/1 8/3/1
f 10/6/1 6/6/1 5/6/1
f 10/7/1 5/7/1 9/7/1
f 11/7/1 7/7/1 6/7/1
f 11/6/1 6/6/1 10/6/1
f 12/7/1 7/7/1 11/7/1
f 13/1/2 14/1/2 15/1/2
f 15/1/2 14/1/2 16/1/2
f 16/1/2 14/1/2 17/1/2
f 17/1/2 14/1/2 18/1/2
f 18/1/2 14/1/2 19/1/2
f 19/1/2 14/1/2 20/1/2
f 20/1/2 14/1/2 21/1/2
f 15/4/2 16/4/2 22/4/2
f 16/5/2 17/5/2 23/5/2
f 22/4/2 16/4/2 23/4/2
f 17/3/2 18/3/2 24/3/2
f 23/5/2 17/5/2 24/5/2
f 18/4/2 19/4/2 25/4/2
f 24/3/2 18/3/2 25/3/2
f 19/3/2 20/3/2 26/3/2
f 25/4/2 19/4/2 26/4/2
f 20/5/2 21/5/2 27/5/2
f 26/3/2 20/3/2 27/3/2
f 27/5/2 21/5/2 28/5/2
f 32/1/3 30/1/3 29/1/3
f 32/3/3 31/3/3 30/3/3
f 33/3/3 31/3/3 32/3/3
f 34/1/3 32/1/3 29/1/3
f 34/4/3 33/4/3 32/4/3
f 35/4/3 33/4/3 34/4/3
f 36/1/3 34/1/3 29/1/3
f 36/3/3 35/3/3 34/3/3
f 37/3/3 35/3/3 36/3/3
f 38/1/3 36/1/3 29/1/3
f 38/5/3 37/5/3 36/5/3
f 39/5/3 37/5/3 38/5/3
f 40/1/3 38/1/3 29/1/3
f 41/4/3 39/4/3 38/4/3
f 41/1/3 38/1/3 40/1/3
f 42/4/3 39/4/3 41/4/3
f 43/1/4 44/1/4 46/1/4
f 44/7/4 45/7/4 46/7/4
f 46/7/4 45/7/4 47/7/4
f 43/1/4 46/1/4 48/1/4
f 46/5/4 47/5/4 49/5/4
f 48/1/4 46/1/4 49/1/4
f 49/5/4 47/5/4 50/5/4
f 53/1/5 52/1/5 51/1/5
f 54/1/5 52/1/5 53/1/5
f 55/3/6 56/3/6 61/3/6
f 56/4/6 57/4/6 62/4/6
f 61/3/6 56/3/6 62/3/6
f 57/3/6 58/3/6 63/3/6
f 62/4/6 57/4/6 63/4/6
f 58/5/6 59/5/6 64/5/6
f 63/3/6 58/3/6 64/3/6
f 59/4/6 60/4/6 65/4/6
f 64/5/6 59/5/6 65/5/6
f 65/4/6 60/4/6 66/4/6
f 63/6/6 64/6/6 67/6/6
f 61/7/6 62/7/6 67/7/6
f 62/7/6 63/7/6 67/7/6
f 64/7/6 65/7/6 68/7/6
f 67/6/6 64/6/6 68/6/6
f 68/7/6 65/7/6 69/7/6
f 65/5/6 66/5/6 70/5/6
f 69/7/6 65/7/6 70/7/6
f 70/5/6 66/5/6 71/5/6
f 61/7/6 67/7/6 72/7/6
f 67/7/6 68/7/6 72/7/6
f 72/7/6 68/7/6 73/7/6
f 68/2/6 69/2/6 74/2/6
f 73/7/6 68/7/6 74/7/6
f 69/7/6 70/7/6 75/7/6
f 74/2/6 69/2/6 75/2/6
f 70/3/6 71/3/6 76/3/6
f 75/7/6 70/7/6 76/7/6
f 76/3/6 71/3/6 77/3/6
f 61/7/6 72/7/6 78/7/6
f 72/2/6 73/2/6 79/2/6
f 78/7/6 72/7/6 79/7/6
f 74/7/6 75/7/6 80/7/6
f 79/2/6 73/2/6 80/2/6
f 73/7/6 74/7/6 80/7/6
f 75/7/6 76/7/6 80/7/6
f 80/7/6 76/7/6 81/7/6
f 81/7/6 76/7/6 82/7/6
f 76/4/6 77/4/6 83/4/6
f 82/7/6 76/7/6 83/7/6
f 83/4/6 77/4/6 84/4/6
f 78/6/6 79/6/6 85/6/6
f 79/7/6 80/7/6 86/7/6
f 85/6/6 79/6/6 86/6/6
f 80/7/6 81/7/6 86/7/6
f 81/2/6 82/2/6 87/2/6
f 86/7/6 81/7/6 87/7/6
f 82/6/6 83/6/6 88/6/6
f 87/2/6 82/2/6 88/2/6
f 83/3/6 84/3/6 89/3/6
f 88/6/6 83/6/6 89/6/6
f 89/3/6 84/3/6 90/3/6
f 85/7/6 86/7/6 91/7/6
f 87/7/6 88/7/6 91/7/6
f 86/7/6 87/7/6 91/7/6
f 88/7/6 89/7/6 91/7/6
f 89/5/6 90/5/6 92/5/6
f 91/7/6 89/7/6 92/7/6
f 92/5/6 90/5/6 93/5/6
