# MagicaVoxel @ Ephtracy

# group
o 

# material
mtllib Tank.mtl
usemtl palette

# normals
vn -1 0 0
vn 1 0 0
vn 0 0 1
vn 0 0 -1
vn 0 -1 0
vn 0 1 0

# texcoords
vt 0.958984 0.5
vt 0.994141 0.5

# verts
v -0.6 0.4 0.1
v -0.6 0.4 -0.1
v -0.6 0.5 0.1
v -0.6 0.5 -0.1
v -0.4 0.1 0.4
v -0.4 0.1 0.3
v -0.4 0.1 -0.3
v -0.4 0.1 -0.4
v -0.4 0.2 0.4
v -0.4 0.2 0.3
v -0.4 0.2 -0.3
v -0.4 0.2 -0.4
v -0.4 0.3 0.3
v -0.4 0.3 -0.3
v -0.3 0 0.4
v -0.3 0 0.3
v -0.3 0 -0.3
v -0.3 0 -0.4
v -0.3 0.1 0.4
v -0.3 0.1 0.3
v -0.3 0.1 -0.3
v -0.3 0.1 -0.4
v -0.3 0.2 0.4
v -0.3 0.2 0.3
v -0.3 0.2 -0.3
v -0.3 0.2 -0.4
v -0.3 0.3 0.4
v -0.3 0.3 0.3
v -0.3 0.3 -0.3
v -0.3 0.3 -0.4
v -0.1 0.3 0.2
v -0.1 0.3 -0.2
v -0.1 0.4 0.1
v -0.1 0.4 -0.1
v -0.1 0.5 0.2
v -0.1 0.5 0.1
v -0.1 0.5 -0.1
v -0.1 0.5 -0.2
v -5.96046e-08 0.5 0.1
v -5.96046e-08 0.5 -0.1
v -5.96046e-08 0.6 0.1
v -5.96046e-08 0.6 -0.1
v 0.2 0.5 0.1
v 0.2 0.5 -0.1
v 0.2 0.6 0.1
v 0.2 0.6 -0.1
v 0.3 0.3 0.2
v 0.3 0.3 -0.2
v 0.3 0.5 0.2
v 0.3 0.5 -0.2
v 0.4 0 0.4
v 0.4 0 0.3
v 0.4 0 -0.3
v 0.4 0 -0.4
v 0.4 0.1 0.4
v 0.4 0.1 0.3
v 0.4 0.1 -0.3
v 0.4 0.1 -0.4
v 0.4 0.2 0.4
v 0.4 0.2 0.3
v 0.4 0.2 -0.3
v 0.4 0.2 -0.4
v 0.4 0.3 0.4
v 0.4 0.3 0.3
v 0.4 0.3 -0.3
v 0.4 0.3 -0.4
v 0.5 0.1 0.4
v 0.5 0.1 0.3
v 0.5 0.1 -0.3
v 0.5 0.1 -0.4
v 0.5 0.2 0.4
v 0.5 0.2 0.3
v 0.5 0.2 0.2
v 0.5 0.2 -0.2
v 0.5 0.2 -0.3
v 0.5 0.2 -0.4
v 0.5 0.3 0.2
v 0.5 0.3 -0.2
v 0.6 0.1 0.3
v 0.6 0.1 -0.3
v 0.6 0.2 0.2
v 0.6 0.2 -0.2
v 0.6 0.3 0.3
v 0.6 0.3 0.2
v 0.6 0.3 -0.2
v 0.6 0.3 -0.3
v -0.4 0.1 0.4
v -0.4 0.2 0.4
v -0.3 0 0.4
v -0.3 0.1 0.4
v -0.3 0.2 0.4
v -0.3 0.3 0.4
v 0.4 0 0.4
v 0.4 0.1 0.4
v 0.4 0.2 0.4
v 0.4 0.3 0.4
v 0.5 0.1 0.4
v 0.5 0.2 0.4
v -0.4 0.2 0.3
v -0.4 0.3 0.3
v -0.3 0.2 0.3
v -0.3 0.3 0.3
v 0.4 0.2 0.3
v 0.4 0.3 0.3
v 0.5 0.1 0.3
v 0.5 0.2 0.3
v 0.6 0.1 0.3
v 0.6 0.3 0.3
v -0.1 0.3 0.2
v -0.1 0.5 0.2
v 0.3 0.3 0.2
v 0.3 0.5 0.2
v -0.6 0.4 0.1
v -0.6 0.5 0.1
v -0.1 0.4 0.1
v -0.1 0.5 0.1
v -5.96046e-08 0.5 0.1
v -5.96046e-08 0.6 0.1
v 0.2 0.5 0.1
v 0.2 0.6 0.1
v 0.5 0.2 -0.2
v 0.5 0.3 -0.2
v 0.6 0.2 -0.2
v 0.6 0.3 -0.2
v -0.4 0.1 -0.3
v -0.4 0.2 -0.3
v -0.3 0 -0.3
v -0.3 0.1 -0.3
v -0.3 0.2 -0.3
v 0.4 0 -0.3
v 0.4 0.1 -0.3
v -0.4 0.1 0.3
v -0.4 0.2 0.3
v -0.3 0 0.3
v -0.3 0.1 0.3
v -0.3 0.2 0.3
v 0.4 0 0.3
v 0.4 0.1 0.3
v 0.5 0.2 0.2
v 0.5 0.3 0.2
v 0.6 0.2 0.2
v 0.6 0.3 0.2
v -0.6 0.4 -0.1
v -0.6 0.5 -0.1
v -0.1 0.4 -0.1
v -0.1 0.5 -0.1
v -5.96046e-08 0.5 -0.1
v -5.96046e-08 0.6 -0.1
v 0.2 0.5 -0.1
v 0.2 0.6 -0.1
v -0.1 0.3 -0.2
v -0.1 0.5 -0.2
v 0.3 0.3 -0.2
v 0.3 0.5 -0.2
v -0.4 0.2 -0.3
v -0.4 0.3 -0.3
v -0.3 0.2 -0.3
v -0.3 0.3 -0.3
v 0.4 0.2 -0.3
v 0.4 0.3 -0.3
v 0.5 0.1 -0.3
v 0.5 0.2 -0.3
v 0.6 0.1 -0.3
v 0.6 0.3 -0.3
v -0.4 0.1 -0.4
v -0.4 0.2 -0.4
v -0.3 0 -0.4
v -0.3 0.1 -0.4
v -0.3 0.2 -0.4
v -0.3 0.3 -0.4
v 0.4 0 -0.4
v 0.4 0.1 -0.4
v 0.4 0.2 -0.4
v 0.4 0.3 -0.4
v 0.5 0.1 -0.4
v 0.5 0.2 -0.4
v -0.3 0 0.4
v 0.4 0 0.4
v -0.3 0 0.3
v 0.4 0 0.3
v -0.3 0 -0.3
v 0.4 0 -0.3
v -0.3 0 -0.4
v 0.4 0 -0.4
v -0.4 0.1 0.4
v -0.3 0.1 0.4
v 0.4 0.1 0.4
v 0.5 0.1 0.4
v -0.4 0.1 0.3
v -0.3 0.1 0.3
v 0.4 0.1 0.3
v 0.5 0.1 0.3
v 0.6 0.1 0.3
v -0.4 0.1 -0.3
v -0.3 0.1 -0.3
v 0.4 0.1 -0.3
v 0.5 0.1 -0.3
v 0.6 0.1 -0.3
v -0.4 0.1 -0.4
v -0.3 0.1 -0.4
v 0.4 0.1 -0.4
v 0.5 0.1 -0.4
v -0.4 0.2 0.3
v -0.3 0.2 0.3
v -0.4 0.2 -0.3
v -0.3 0.2 -0.3
v -0.6 0.4 0.1
v -0.1 0.4 0.1
v -0.6 0.4 -0.1
v -0.1 0.4 -0.1
v -0.4 0.2 0.4
v -0.3 0.2 0.4
v 0.4 0.2 0.4
v 0.5 0.2 0.4
v -0.4 0.2 0.3
v -0.3 0.2 0.3
v 0.4 0.2 0.3
v 0.5 0.2 0.3
v 0.5 0.2 0.2
v 0.6 0.2 0.2
v 0.5 0.2 -0.2
v 0.6 0.2 -0.2
v -0.4 0.2 -0.3
v -0.3 0.2 -0.3
v 0.4 0.2 -0.3
v 0.5 0.2 -0.3
v -0.4 0.2 -0.4
v -0.3 0.2 -0.4
v 0.4 0.2 -0.4
v 0.5 0.2 -0.4
v -0.3 0.3 0.4
v 0.4 0.3 0.4
v -0.4 0.3 0.3
v -0.3 0.3 0.3
v 0.4 0.3 0.3
v 0.6 0.3 0.3
v -0.1 0.3 0.2
v 0.3 0.3 0.2
v 0.5 0.3 0.2
v 0.6 0.3 0.2
v -0.1 0.3 -0.2
v 0.3 0.3 -0.2
v 0.5 0.3 -0.2
v 0.6 0.3 -0.2
v -0.4 0.3 -0.3
v -0.3 0.3 -0.3
v 0.4 0.3 -0.3
v 0.6 0.3 -0.3
v -0.3 0.3 -0.4
v 0.4 0.3 -0.4
v -0.1 0.5 0.2
v 0.3 0.5 0.2
v -0.6 0.5 0.1
v -0.1 0.5 0.1
v -5.96046e-08 0.5 0.1
v 0.2 0.5 0.1
v -0.6 0.5 -0.1
v -0.1 0.5 -0.1
v -5.96046e-08 0.5 -0.1
v 0.2 0.5 -0.1
v -0.1 0.5 -0.2
v 0.3 0.5 -0.2
v -5.96046e-08 0.6 0.1
v 0.2 0.6 0.1
v -5.96046e-08 0.6 -0.1
v 0.2 0.6 -0.1

# faces
f 3/2/1 2/2/1 1/2/1
f 4/2/1 2/2/1 3/2/1
f 9/2/1 6/2/1 5/2/1
f 10/2/1 6/2/1 9/2/1
f 11/2/1 8/2/1 7/2/1
f 12/2/1 8/2/1 11/2/1
f 13/1/1 11/1/1 10/1/1
f 14/1/1 11/1/1 13/1/1
f 19/2/1 16/2/1 15/2/1
f 20/2/1 16/2/1 19/2/1
f 21/2/1 18/2/1 17/2/1
f 22/2/1 18/2/1 21/2/1
f 24/1/1 21/1/1 20/1/1
f 25/1/1 21/1/1 24/1/1
f 27/2/1 24/2/1 23/2/1
f 28/2/1 24/2/1 27/2/1
f 29/2/1 26/2/1 25/2/1
f 30/2/1 26/2/1 29/2/1
f 33/1/1 32/1/1 31/1/1
f 34/1/1 32/1/1 33/1/1
f 35/1/1 33/1/1 31/1/1
f 36/1/1 33/1/1 35/1/1
f 37/1/1 32/1/1 34/1/1
f 38/1/1 32/1/1 37/1/1
f 41/1/1 40/1/1 39/1/1
f 42/1/1 40/1/1 41/1/1
f 43/1/2 44/1/2 45/1/2
f 45/1/2 44/1/2 46/1/2
f 47/1/2 48/1/2 49/1/2
f 49/1/2 48/1/2 50/1/2
f 51/2/2 52/2/2 55/2/2
f 55/2/2 52/2/2 56/2/2
f 53/2/2 54/2/2 57/2/2
f 57/2/2 54/2/2 58/2/2
f 59/2/2 60/2/2 63/2/2
f 63/2/2 60/2/2 64/2/2
f 61/2/2 62/2/2 65/2/2
f 65/2/2 62/2/2 66/2/2
f 67/2/2 68/2/2 71/2/2
f 71/2/2 68/2/2 72/2/2
f 69/2/2 70/2/2 75/2/2
f 75/2/2 70/2/2 76/2/2
f 73/1/2 74/1/2 77/1/2
f 77/1/2 74/1/2 78/1/2
f 79/1/2 80/1/2 81/1/2
f 81/1/2 80/1/2 82/1/2
f 79/1/2 81/1/2 83/1/2
f 83/1/2 81/1/2 84/1/2
f 82/1/2 80/1/2 85/1/2
f 85/1/2 80/1/2 86/1/2
f 90/2/3 88/2/3 87/2/3
f 91/2/3 88/2/3 90/2/3
f 93/2/3 90/2/3 89/2/3
f 94/1/3 91/1/3 90/1/3
f 94/2/3 90/2/3 93/2/3
f 95/2/3 92/2/3 91/2/3
f 95/1/3 91/1/3 94/1/3
f 96/2/3 92/2/3 95/2/3
f 97/2/3 95/2/3 94/2/3
f 98/2/3 95/2/3 97/2/3
f 101/1/3 100/1/3 99/1/3
f 102/1/3 100/1/3 101/1/3
f 106/1/3 104/1/3 103/1/3
f 107/1/3 106/1/3 105/1/3
f 108/1/3 104/1/3 106/1/3
f 108/1/3 106/1/3 107/1/3
f 111/1/3 110/1/3 109/1/3
f 112/1/3 110/1/3 111/1/3
f 115/2/3 114/2/3 113/2/3
f 116/2/3 114/2/3 115/2/3
f 119/1/3 118/1/3 117/1/3
f 120/1/3 118/1/3 119/1/3
f 123/1/3 122/1/3 121/1/3
f 124/1/3 122/1/3 123/1/3
f 128/2/3 126/2/3 125/2/3
f 129/2/3 126/2/3 128/2/3
f 130/2/3 128/2/3 127/2/3
f 131/2/3 128/2/3 130/2/3
f 132/2/4 133/2/4 135/2/4
f 135/2/4 133/2/4 136/2/4
f 134/2/4 135/2/4 137/2/4
f 137/2/4 135/2/4 138/2/4
f 139/1/4 140/1/4 141/1/4
f 141/1/4 140/1/4 142/1/4
f 143/2/4 144/2/4 145/2/4
f 145/2/4 144/2/4 146/2/4
f 147/1/4 148/1/4 149/1/4
f 149/1/4 148/1/4 150/1/4
f 151/1/4 152/1/4 153/1/4
f 153/1/4 152/1/4 154/1/4
f 155/1/4 156/1/4 157/1/4
f 157/1/4 156/1/4 158/1/4
f 159/1/4 160/1/4 162/1/4
f 161/1/4 162/1/4 163/1/4
f 162/1/4 160/1/4 164/1/4
f 163/1/4 162/1/4 164/1/4
f 165/2/4 166/2/4 168/2/4
f 168/2/4 166/2/4 169/2/4
f 167/2/4 168/2/4 171/2/4
f 168/1/4 169/1/4 172/1/4
f 171/2/4 168/2/4 172/2/4
f 169/2/4 170/2/4 173/2/4
f 172/1/4 169/1/4 173/1/4
f 173/2/4 170/2/4 174/2/4
f 172/2/4 173/2/4 175/2/4
f 175/2/4 173/2/4 176/2/4
f 179/2/5 178/2/5 177/2/5
f 180/2/5 178/2/5 179/2/5
f 183/2/5 182/2/5 181/2/5
f 184/2/5 182/2/5 183/2/5
f 189/2/5 186/2/5 185/2/5
f 190/2/5 186/2/5 189/2/5
f 191/2/5 188/2/5 187/2/5
f 192/2/5 188/2/5 191/2/5
f 195/1/5 193/1/5 192/1/5
f 195/1/5 192/1/5 191/1/5
f 195/1/5 191/1/5 190/1/5
f 196/1/5 193/1/5 195/1/5
f 197/1/5 193/1/5 196/1/5
f 198/1/5 193/1/5 197/1/5
f 199/2/5 195/2/5 194/2/5
f 200/2/5 195/2/5 199/2/5
f 201/2/5 197/2/5 196/2/5
f 202/2/5 197/2/5 201/2/5
f 205/1/5 204/1/5 203/1/5
f 206/1/5 204/1/5 205/1/5
f 209/2/5 208/2/5 207/2/5
f 210/2/5 208/2/5 209/2/5
f 211/2/6 212/2/6 215/2/6
f 215/2/6 212/2/6 216/2/6
f 213/2/6 214/2/6 217/2/6
f 217/2/6 214/2/6 218/2/6
f 219/1/6 220/1/6 221/1/6
f 221/1/6 220/1/6 222/1/6
f 223/2/6 224/2/6 227/2/6
f 227/2/6 224/2/6 228/2/6
f 225/2/6 226/2/6 229/2/6
f 229/2/6 226/2/6 230/2/6
f 231/2/6 232/2/6 234/2/6
f 234/2/6 232/2/6 235/2/6
f 233/1/6 234/1/6 237/1/6
f 235/1/6 236/1/6 237/1/6
f 234/1/6 235/1/6 237/1/6
f 237/1/6 236/1/6 238/1/6
f 238/1/6 236/1/6 239/1/6
f 239/1/6 236/1/6 240/1/6
f 233/1/6 237/1/6 241/1/6
f 238/1/6 239/1/6 242/1/6
f 242/1/6 239/1/6 243/1/6
f 233/1/6 241/1/6 245/1/6
f 243/1/6 244/1/6 245/1/6
f 242/1/6 243/1/6 245/1/6
f 241/1/6 242/1/6 245/1/6
f 245/1/6 244/1/6 246/1/6
f 246/1/6 244/1/6 247/1/6
f 247/1/6 244/1/6 248/1/6
f 246/2/6 247/2/6 249/2/6
f 249/2/6 247/2/6 250/2/6
f 251/1/6 252/1/6 254/1/6
f 254/1/6 252/1/6 255/1/6
f 255/1/6 252/1/6 256/1/6
f 253/2/6 254/2/6 257/2/6
f 254/1/6 255/1/6 258/1/6
f 257/2/6 254/2/6 258/2/6
f 258/1/6 255/1/6 259/1/6
f 256/1/6 252/1/6 260/1/6
f 258/1/6 259/1/6 261/1/6
f 259/1/6 260/1/6 261/1/6
f 260/1/6 252/1/6 262/1/6
f 261/1/6 260/1/6 262/1/6
f 263/1/6 264/1/6 265/1/6
f 265/1/6 264/1/6 266/1/6
