# MagicaVoxel @ Ephtracy

# group
o 

# material
mtllib Ground_sandANDgrassTURN.mtl
usemtl palette

# normals
vn -1 0 0
vn 1 0 0
vn 0 0 1
vn 0 0 -1
vn 0 -1 0
vn 0 1 0

# texcoords
vt 0.310547 0.5
vt 0.380859 0.5
vt 0.388672 0.5
vt 0.392578 0.5
vt 0.396484 0.5
vt 0.412109 0.5
vt 0.416016 0.5

# verts
v -0.3 0 0.3
v -0.3 0 -0.3
v -0.3 0.1 0.3
v -0.3 0.1 0.2
v -0.3 0.1 0.1
v -0.3 0.1 -0.1
v -0.3 0.1 -0.2
v -0.3 0.1 -0.3
v -0.3 0.2 0.3
v -0.3 0.2 0.2
v -0.3 0.2 0.1
v -0.3 0.2 -0.1
v -0.3 0.2 -0.2
v -0.3 0.2 -0.3
v 0.3 0 0.3
v 0.3 0 -0.3
v 0.3 0.1 0.3
v 0.3 0.1 0.2
v 0.3 0.1 0.1
v 0.3 0.1 -0.2
v 0.3 0.1 -0.3
v 0.3 0.2 0.3
v 0.3 0.2 0.2
v 0.3 0.2 0.1
v 0.3 0.2 -0.2
v 0.3 0.2 -0.3
v -0.3 0 0.3
v -0.3 0.1 0.3
v -0.3 0.2 0.3
v -0.2 0.1 0.3
v -0.2 0.2 0.3
v 0.3 0 0.3
v 0.3 0.1 0.3
v 0.3 0.2 0.3
v -0.3 0 -0.3
v -0.3 0.1 -0.3
v -0.3 0.2 -0.3
v -0.2 0.1 -0.3
v -0.2 0.2 -0.3
v -0.1 0.1 -0.3
v -0.1 0.2 -0.3
v 0 0.1 -0.3
v 0 0.2 -0.3
v 0.1 0.1 -0.3
v 0.1 0.2 -0.3
v 0.2 0.1 -0.3
v 0.2 0.2 -0.3
v 0.3 0 -0.3
v 0.3 0.1 -0.3
v 0.3 0.2 -0.3
v -0.3 0 0.3
v 0.3 0 0.3
v -0.3 0 -0.3
v 0.3 0 -0.3
v -0.3 0.2 0.3
v -0.2 0.2 0.3
v 0.3 0.2 0.3
v -0.3 0.2 0.2
v -0.2 0.2 0.2
v -0.1 0.2 0.2
v 0 0.2 0.2
v 0.2 0.2 0.2
v 0.3 0.2 0.2
v -0.3 0.2 0.1
v -0.2 0.2 0.1
v -0.1 0.2 0.1
v 0 0.2 0.1
v 0.1 0.2 0.1
v 0.2 0.2 0.1
v 0.3 0.2 0.1
v -0.2 0.2 0
v -0.1 0.2 0
v 0 0.2 0
v 0.1 0.2 0
v -0.3 0.2 -0.1
v -0.2 0.2 -0.1
v -0.1 0.2 -0.1
v 0 0.2 -0.1
v 0.1 0.2 -0.1
v 0.2 0.2 -0.1
v -0.3 0.2 -0.2
v -0.2 0.2 -0.2
v -0.1 0.2 -0.2
v 0 0.2 -0.2
v 0.1 0.2 -0.2
v 0.2 0.2 -0.2
v 0.3 0.2 -0.2
v -0.3 0.2 -0.3
v -0.2 0.2 -0.3
v -0.1 0.2 -0.3
v 0 0.2 -0.3
v 0.1 0.2 -0.3
v 0.2 0.2 -0.3
v 0.3 0.2 -0.3

# faces
f 3/1/1 2/1/1 1/1/1
f 4/1/1 2/1/1 3/1/1
f 5/1/1 2/1/1 4/1/1
f 6/1/1 2/1/1 5/1/1
f 7/1/1 2/1/1 6/1/1
f 8/1/1 2/1/1 7/1/1
f 9/4/1 4/4/1 3/4/1
f 10/5/1 5/5/1 4/5/1
f 10/4/1 4/4/1 9/4/1
f 11/3/1 6/3/1 5/3/1
f 11/5/1 5/5/1 10/5/1
f 12/5/1 7/5/1 6/5/1
f 12/3/1 6/3/1 11/3/1
f 13/4/1 8/4/1 7/4/1
f 13/5/1 7/5/1 12/5/1
f 14/4/1 8/4/1 13/4/1
f 15/1/2 16/1/2 17/1/2
f 17/1/2 16/1/2 18/1/2
f 18/1/2 16/1/2 19/1/2
f 19/1/2 16/1/2 20/1/2
f 20/1/2 16/1/2 21/1/2
f 17/7/2 18/7/2 22/7/2
f 18/6/2 19/6/2 23/6/2
f 22/7/2 18/7/2 23/7/2
f 19/7/2 20/7/2 24/7/2
f 23/6/2 19/6/2 24/6/2
f 20/5/2 21/5/2 25/5/2
f 24/7/2 20/7/2 25/7/2
f 25/5/2 21/5/2 26/5/2
f 30/1/3 28/1/3 27/1/3
f 30/4/3 29/4/3 28/4/3
f 31/4/3 29/4/3 30/4/3
f 32/1/3 30/1/3 27/1/3
f 33/7/3 31/7/3 30/7/3
f 33/1/3 30/1/3 32/1/3
f 34/7/3 31/7/3 33/7/3
f 35/1/4 36/1/4 38/1/4
f 36/4/4 37/4/4 38/4/4
f 38/4/4 37/4/4 39/4/4
f 35/1/4 38/1/4 40/1/4
f 38/5/4 39/5/4 40/5/4
f 40/5/4 39/5/4 41/5/4
f 35/1/4 40/1/4 42/1/4
f 40/4/4 41/4/4 42/4/4
f 42/4/4 41/4/4 43/4/4
f 35/1/4 42/1/4 44/1/4
f 42/3/4 43/3/4 44/3/4
f 44/3/4 43/3/4 45/3/4
f 35/1/4 44/1/4 46/1/4
f 44/4/4 45/4/4 46/4/4
f 46/4/4 45/4/4 47/4/4
f 35/1/4 46/1/4 48/1/4
f 46/5/4 47/5/4 49/5/4
f 48/1/4 46/1/4 49/1/4
f 49/5/4 47/5/4 50/5/4
f 53/1/5 52/1/5 51/1/5
f 54/1/5 52/1/5 53/1/5
f 55/4/6 56/4/6 58/4/6
f 56/7/6 57/7/6 59/7/6
f 58/4/6 56/4/6 59/4/6
f 59/7/6 57/7/6 60/7/6
f 60/7/6 57/7/6 61/7/6
f 61/7/6 57/7/6 62/7/6
f 62/7/6 57/7/6 63/7/6
f 58/5/6 59/5/6 64/5/6
f 59/7/6 60/7/6 65/7/6
f 64/5/6 59/5/6 65/5/6
f 60/6/6 61/6/6 66/6/6
f 65/7/6 60/7/6 66/7/6
f 61/7/6 62/7/6 67/7/6
f 66/6/6 61/6/6 67/6/6
f 67/7/6 62/7/6 68/7/6
f 62/6/6 63/6/6 69/6/6
f 68/7/6 62/7/6 69/7/6
f 69/6/6 63/6/6 70/6/6
f 64/3/6 65/3/6 71/3/6
f 65/7/6 66/7/6 71/7/6
f 66/7/6 67/7/6 71/7/6
f 71/7/6 67/7/6 72/7/6
f 67/2/6 68/2/6 73/2/6
f 72/7/6 67/7/6 73/7/6
f 69/7/6 70/7/6 74/7/6
f 73/2/6 68/2/6 74/2/6
f 68/7/6 69/7/6 74/7/6
f 64/3/6 71/3/6 75/3/6
f 71/2/6 72/2/6 76/2/6
f 75/3/6 71/3/6 76/3/6
f 72/7/6 73/7/6 77/7/6
f 76/2/6 72/2/6 77/2/6
f 73/7/6 74/7/6 77/7/6
f 77/7/6 74/7/6 78/7/6
f 74/7/6 70/7/6 79/7/6
f 78/7/6 74/7/6 79/7/6
f 79/7/6 70/7/6 80/7/6
f 75/5/6 76/5/6 81/5/6
f 77/7/6 78/7/6 82/7/6
f 81/5/6 76/5/6 82/5/6
f 76/7/6 77/7/6 82/7/6
f 82/7/6 78/7/6 83/7/6
f 78/2/6 79/2/6 84/2/6
f 83/7/6 78/7/6 84/7/6
f 79/6/6 80/6/6 85/6/6
f 84/2/6 79/2/6 85/2/6
f 80/7/6 70/7/6 86/7/6
f 85/6/6 80/6/6 86/6/6
f 86/7/6 70/7/6 87/7/6
f 81/4/6 82/4/6 88/4/6
f 82/5/6 83/5/6 89/5/6
f 88/4/6 82/4/6 89/4/6
f 83/4/6 84/4/6 90/4/6
f 89/5/6 83/5/6 90/5/6
f 84/3/6 85/3/6 91/3/6
f 90/4/6 84/4/6 91/4/6
f 85/4/6 86/4/6 92/4/6
f 91/3/6 85/3/6 92/3/6
f 86/5/6 87/5/6 93/5/6
f 92/4/6 86/4/6 93/4/6
f 93/5/6 87/5/6 94/5/6
