# MagicaVoxel @ Ephtracy

# group
o 

# material
mtllib Ground_sandANDgrassDOWN.mtl
usemtl palette

# normals
vn -1 0 0
vn 1 0 0
vn 0 0 1
vn 0 0 -1
vn 0 -1 0
vn 0 1 0

# texcoords
vt 0.310547 0.5
vt 0.380859 0.5
vt 0.388672 0.5
vt 0.392578 0.5
vt 0.396484 0.5
vt 0.412109 0.5
vt 0.416016 0.5

# verts
v -0.3 0 0.3
v -0.3 0 -0.3
v -0.3 0.1 0.3
v -0.3 0.1 0.2
v -0.3 0.1 0.1
v -0.3 0.1 0
v -0.3 0.1 -0.2
v -0.3 0.1 -0.3
v -0.3 0.2 0.3
v -0.3 0.2 0.2
v -0.3 0.2 0.1
v -0.3 0.2 0
v -0.3 0.2 -0.2
v -0.3 0.2 -0.3
v 0.3 0 0.3
v 0.3 0 -0.3
v 0.3 0.1 0.3
v 0.3 0.1 0.2
v 0.3 0.1 0.1
v 0.3 0.1 -0.3
v 0.3 0.2 0.3
v 0.3 0.2 0.2
v 0.3 0.2 0.1
v 0.3 0.2 -0.3
v -0.3 0 0.3
v -0.3 0.1 0.3
v -0.3 0.2 0.3
v -0.2 0.1 0.3
v -0.2 0.2 0.3
v 0.3 0 0.3
v 0.3 0.1 0.3
v 0.3 0.2 0.3
v -0.3 0 -0.3
v -0.3 0.1 -0.3
v -0.3 0.2 -0.3
v -0.2 0.1 -0.3
v -0.2 0.2 -0.3
v 0.3 0 -0.3
v 0.3 0.1 -0.3
v 0.3 0.2 -0.3
v -0.3 0 0.3
v 0.3 0 0.3
v -0.3 0 -0.3
v 0.3 0 -0.3
v -0.3 0.2 0.3
v -0.2 0.2 0.3
v 0.3 0.2 0.3
v -0.3 0.2 0.2
v -0.2 0.2 0.2
v -0.1 0.2 0.2
v 0 0.2 0.2
v 0.2 0.2 0.2
v 0.3 0.2 0.2
v -0.3 0.2 0.1
v -0.2 0.2 0.1
v -0.1 0.2 0.1
v 0 0.2 0.1
v 0.1 0.2 0.1
v 0.2 0.2 0.1
v 0.3 0.2 0.1
v -0.3 0.2 0
v -0.2 0.2 0
v -0.1 0.2 0
v 0 0.2 0
v 0.1 0.2 0
v -0.2 0.2 -0.1
v -0.1 0.2 -0.1
v 0 0.2 -0.1
v 0.1 0.2 -0.1
v 0.2 0.2 -0.1
v -0.3 0.2 -0.2
v -0.2 0.2 -0.2
v 0 0.2 -0.2
v 0.1 0.2 -0.2
v 0.2 0.2 -0.2
v -0.3 0.2 -0.3
v -0.2 0.2 -0.3
v 0.3 0.2 -0.3

# faces
f 3/1/1 2/1/1 1/1/1
f 4/1/1 2/1/1 3/1/1
f 5/1/1 2/1/1 4/1/1
f 6/1/1 2/1/1 5/1/1
f 7/1/1 2/1/1 6/1/1
f 8/1/1 2/1/1 7/1/1
f 9/3/1 4/3/1 3/3/1
f 10/4/1 5/4/1 4/4/1
f 10/3/1 4/3/1 9/3/1
f 11/3/1 6/3/1 5/3/1
f 11/4/1 5/4/1 10/4/1
f 12/5/1 7/5/1 6/5/1
f 12/3/1 6/3/1 11/3/1
f 13/4/1 8/4/1 7/4/1
f 13/5/1 7/5/1 12/5/1
f 14/4/1 8/4/1 13/4/1
f 15/1/2 16/1/2 17/1/2
f 17/1/2 16/1/2 18/1/2
f 18/1/2 16/1/2 19/1/2
f 19/1/2 16/1/2 20/1/2
f 17/7/2 18/7/2 21/7/2
f 18/6/2 19/6/2 22/6/2
f 21/7/2 18/7/2 22/7/2
f 19/7/2 20/7/2 23/7/2
f 22/6/2 19/6/2 23/6/2
f 23/7/2 20/7/2 24/7/2
f 28/1/3 26/1/3 25/1/3
f 28/3/3 27/3/3 26/3/3
f 29/3/3 27/3/3 28/3/3
f 30/1/3 28/1/3 25/1/3
f 31/7/3 29/7/3 28/7/3
f 31/1/3 28/1/3 30/1/3
f 32/7/3 29/7/3 31/7/3
f 33/1/4 34/1/4 36/1/4
f 34/4/4 35/4/4 36/4/4
f 36/4/4 35/4/4 37/4/4
f 33/1/4 36/1/4 38/1/4
f 36/7/4 37/7/4 39/7/4
f 38/1/4 36/1/4 39/1/4
f 39/7/4 37/7/4 40/7/4
f 43/1/5 42/1/5 41/1/5
f 44/1/5 42/1/5 43/1/5
f 45/3/6 46/3/6 48/3/6
f 46/7/6 47/7/6 49/7/6
f 48/3/6 46/3/6 49/3/6
f 49/7/6 47/7/6 50/7/6
f 50/7/6 47/7/6 51/7/6
f 51/7/6 47/7/6 52/7/6
f 52/7/6 47/7/6 53/7/6
f 48/4/6 49/4/6 54/4/6
f 49/7/6 50/7/6 55/7/6
f 54/4/6 49/4/6 55/4/6
f 50/6/6 51/6/6 56/6/6
f 55/7/6 50/7/6 56/7/6
f 51/7/6 52/7/6 57/7/6
f 56/6/6 51/6/6 57/6/6
f 57/7/6 52/7/6 58/7/6
f 52/6/6 53/6/6 59/6/6
f 58/7/6 52/7/6 59/7/6
f 59/6/6 53/6/6 60/6/6
f 54/3/6 55/3/6 61/3/6
f 55/7/6 56/7/6 62/7/6
f 61/3/6 55/3/6 62/3/6
f 56/7/6 57/7/6 62/7/6
f 62/7/6 57/7/6 63/7/6
f 57/2/6 58/2/6 64/2/6
f 63/7/6 57/7/6 64/7/6
f 59/7/6 60/7/6 65/7/6
f 64/2/6 58/2/6 65/2/6
f 58/7/6 59/7/6 65/7/6
f 62/2/6 63/2/6 66/2/6
f 61/5/6 62/5/6 66/5/6
f 63/7/6 64/7/6 67/7/6
f 66/2/6 63/2/6 67/2/6
f 64/7/6 65/7/6 67/7/6
f 67/7/6 65/7/6 68/7/6
f 65/7/6 60/7/6 69/7/6
f 68/7/6 65/7/6 69/7/6
f 69/7/6 60/7/6 70/7/6
f 61/5/6 66/5/6 71/5/6
f 67/7/6 68/7/6 72/7/6
f 71/5/6 66/5/6 72/5/6
f 66/7/6 67/7/6 72/7/6
f 68/2/6 69/2/6 73/2/6
f 72/7/6 68/7/6 73/7/6
f 69/6/6 70/6/6 74/6/6
f 73/2/6 69/2/6 74/2/6
f 70/7/6 60/7/6 75/7/6
f 74/6/6 70/6/6 75/6/6
f 71/4/6 72/4/6 76/4/6
f 73/7/6 74/7/6 77/7/6
f 76/4/6 72/4/6 77/4/6
f 72/7/6 73/7/6 77/7/6
f 74/7/6 75/7/6 77/7/6
f 75/7/6 60/7/6 78/7/6
f 77/7/6 75/7/6 78/7/6
